<mxfile host="app.diagrams.net" agent="Mozilla/5.0 (Windows NT 10.0; Win64; x64) AppleWebKit/537.36 (KHTML, like Gecko) Chrome/139.0.0.0 Safari/537.36" version="28.1.0">
  <diagram name="Page-1" id="bdoBlTTf6EbM5PygInMJ">
    <mxGraphModel dx="872" dy="1565" grid="1" gridSize="10" guides="1" tooltips="1" connect="1" arrows="1" fold="1" page="1" pageScale="1" pageWidth="850" pageHeight="1100" math="0" shadow="0">
      <root>
        <mxCell id="0" />
        <mxCell id="1" parent="0" />
        <mxCell id="2" value="BOOK" style="shape=table;startSize=25;container=1;collapsible=0;childLayout=tableLayout;fixedRows=1;rowLines=1;fontStyle=1;align=center;resizeLast=1;" parent="1" vertex="1">
          <mxGeometry x="60" width="243" height="172" as="geometry" />
        </mxCell>
        <mxCell id="3" style="shape=tableRow;horizontal=0;startSize=0;swimlaneHead=0;swimlaneBody=0;fillColor=none;collapsible=0;dropTarget=0;points=[[0,0.5],[1,0.5]];portConstraint=eastwest;top=0;left=0;right=0;bottom=0;" parent="2" vertex="1">
          <mxGeometry y="25" width="243" height="49" as="geometry" />
        </mxCell>
        <mxCell id="4" value="string" style="shape=partialRectangle;connectable=0;fillColor=none;top=0;left=0;bottom=0;right=0;align=left;spacingLeft=2;overflow=hidden;fontSize=11;" parent="3" vertex="1">
          <mxGeometry width="36" height="49" as="geometry">
            <mxRectangle width="36" height="49" as="alternateBounds" />
          </mxGeometry>
        </mxCell>
        <mxCell id="5" value="id" style="shape=partialRectangle;connectable=0;fillColor=none;top=0;left=0;bottom=0;right=0;align=left;spacingLeft=2;overflow=hidden;fontSize=11;" parent="3" vertex="1">
          <mxGeometry x="36" width="185" height="49" as="geometry">
            <mxRectangle width="185" height="49" as="alternateBounds" />
          </mxGeometry>
        </mxCell>
        <mxCell id="6" value="PK" style="shape=partialRectangle;connectable=0;fillColor=none;top=0;left=0;bottom=0;right=0;align=left;spacingLeft=2;overflow=hidden;fontSize=11;" parent="3" vertex="1">
          <mxGeometry x="221" width="22" height="49" as="geometry">
            <mxRectangle width="22" height="49" as="alternateBounds" />
          </mxGeometry>
        </mxCell>
        <mxCell id="7" style="shape=tableRow;horizontal=0;startc:\Users\korba\Downloads\SUB-CPMK-1.jpgSize=0;swimlaneHead=0;swimlaneBody=0;fillColor=none;collapsible=0;dropTarget=0;points=[[0,0.5],[1,0.5]];portConstraint=eastwest;top=0;left=0;right=0;bottom=0;" parent="2" vertex="1">
          <mxGeometry y="74" width="243" height="49" as="geometry" />
        </mxCell>
        <mxCell id="8" value="string" style="shape=partialRectangle;connectable=0;fillColor=none;top=0;left=0;bottom=0;right=0;align=left;spacingLeft=2;overflow=hidden;fontSize=11;" parent="7" vertex="1">
          <mxGeometry width="36" height="49" as="geometry">
            <mxRectangle width="36" height="49" as="alternateBounds" />
          </mxGeometry>
        </mxCell>
        <mxCell id="9" value="title" style="shape=partialRectangle;connectable=0;fillColor=none;top=0;left=0;bottom=0;right=0;align=left;spacingLeft=2;overflow=hidden;fontSize=11;" parent="7" vertex="1">
          <mxGeometry x="36" width="185" height="49" as="geometry">
            <mxRectangle width="185" height="49" as="alternateBounds" />
          </mxGeometry>
        </mxCell>
        <mxCell id="10" value="" style="shape=partialRectangle;connectable=0;fillColor=none;top=0;left=0;bottom=0;right=0;align=left;spacingLeft=2;overflow=hidden;fontSize=11;" parent="7" vertex="1">
          <mxGeometry x="221" width="22" height="49" as="geometry">
            <mxRectangle width="22" height="49" as="alternateBounds" />
          </mxGeometry>
        </mxCell>
        <mxCell id="11" style="shape=tableRow;horizontal=0;startSize=0;swimlaneHead=0;swimlaneBody=0;fillColor=none;collapsible=0;dropTarget=0;points=[[0,0.5],[1,0.5]];portConstraint=eastwest;top=0;left=0;right=0;bottom=0;" parent="2" vertex="1">
          <mxGeometry y="123" width="243" height="49" as="geometry" />
        </mxCell>
        <mxCell id="12" value="string" style="shape=partialRectangle;connectable=0;fillColor=none;top=0;left=0;bottom=0;right=0;align=left;spacingLeft=2;overflow=hidden;fontSize=11;" parent="11" vertex="1">
          <mxGeometry width="36" height="49" as="geometry">
            <mxRectangle width="36" height="49" as="alternateBounds" />
          </mxGeometry>
        </mxCell>
        <mxCell id="13" value="published_date" style="shape=partialRectangle;connectable=0;fillColor=none;top=0;left=0;bottom=0;right=0;align=left;spacingLeft=2;overflow=hidden;fontSize=11;" parent="11" vertex="1">
          <mxGeometry x="36" width="185" height="49" as="geometry">
            <mxRectangle width="185" height="49" as="alternateBounds" />
          </mxGeometry>
        </mxCell>
        <mxCell id="14" value="" style="shape=partialRectangle;connectable=0;fillColor=none;top=0;left=0;bottom=0;right=0;align=left;spacingLeft=2;overflow=hidden;fontSize=11;" parent="11" vertex="1">
          <mxGeometry x="221" width="22" height="49" as="geometry">
            <mxRectangle width="22" height="49" as="alternateBounds" />
          </mxGeometry>
        </mxCell>
        <mxCell id="15" value="AUTHOR" style="shape=table;startSize=25;container=1;collapsible=0;childLayout=tableLayout;fixedRows=1;rowLines=1;fontStyle=1;align=center;resizeLast=1;" parent="1" vertex="1">
          <mxGeometry x="400" y="-10" width="204" height="172" as="geometry" />
        </mxCell>
        <mxCell id="16" style="shape=tableRow;horizontal=0;startSize=0;swimlaneHead=0;swimlaneBody=0;fillColor=none;collapsible=0;dropTarget=0;points=[[0,0.5],[1,0.5]];portConstraint=eastwest;top=0;left=0;right=0;bottom=0;" parent="15" vertex="1">
          <mxGeometry y="25" width="204" height="49" as="geometry" />
        </mxCell>
        <mxCell id="17" value="string" style="shape=partialRectangle;connectable=0;fillColor=none;top=0;left=0;bottom=0;right=0;align=left;spacingLeft=2;overflow=hidden;fontSize=11;" parent="16" vertex="1">
          <mxGeometry width="36" height="49" as="geometry">
            <mxRectangle width="36" height="49" as="alternateBounds" />
          </mxGeometry>
        </mxCell>
        <mxCell id="18" value="id" style="shape=partialRectangle;connectable=0;fillColor=none;top=0;left=0;bottom=0;right=0;align=left;spacingLeft=2;overflow=hidden;fontSize=11;" parent="16" vertex="1">
          <mxGeometry x="36" width="146" height="49" as="geometry">
            <mxRectangle width="146" height="49" as="alternateBounds" />
          </mxGeometry>
        </mxCell>
        <mxCell id="19" value="PK" style="shape=partialRectangle;connectable=0;fillColor=none;top=0;left=0;bottom=0;right=0;align=left;spacingLeft=2;overflow=hidden;fontSize=11;" parent="16" vertex="1">
          <mxGeometry x="182" width="22" height="49" as="geometry">
            <mxRectangle width="22" height="49" as="alternateBounds" />
          </mxGeometry>
        </mxCell>
        <mxCell id="20" style="shape=tableRow;horizontal=0;startSize=0;swimlaneHead=0;swimlaneBody=0;fillColor=none;collapsible=0;dropTarget=0;points=[[0,0.5],[1,0.5]];portConstraint=eastwest;top=0;left=0;right=0;bottom=0;" parent="15" vertex="1">
          <mxGeometry y="74" width="204" height="49" as="geometry" />
        </mxCell>
        <mxCell id="21" value="string" style="shape=partialRectangle;connectable=0;fillColor=none;top=0;left=0;bottom=0;right=0;align=left;spacingLeft=2;overflow=hidden;fontSize=11;" parent="20" vertex="1">
          <mxGeometry width="36" height="49" as="geometry">
            <mxRectangle width="36" height="49" as="alternateBounds" />
          </mxGeometry>
        </mxCell>
        <mxCell id="22" value="name" style="shape=partialRectangle;connectable=0;fillColor=none;top=0;left=0;bottom=0;right=0;align=left;spacingLeft=2;overflow=hidden;fontSize=11;" parent="20" vertex="1">
          <mxGeometry x="36" width="146" height="49" as="geometry">
            <mxRectangle width="146" height="49" as="alternateBounds" />
          </mxGeometry>
        </mxCell>
        <mxCell id="23" value="" style="shape=partialRectangle;connectable=0;fillColor=none;top=0;left=0;bottom=0;right=0;align=left;spacingLeft=2;overflow=hidden;fontSize=11;" parent="20" vertex="1">
          <mxGeometry x="182" width="22" height="49" as="geometry">
            <mxRectangle width="22" height="49" as="alternateBounds" />
          </mxGeometry>
        </mxCell>
        <mxCell id="24" style="shape=tableRow;horizontal=0;startSize=0;swimlaneHead=0;swimlaneBody=0;fillColor=none;collapsible=0;dropTarget=0;points=[[0,0.5],[1,0.5]];portConstraint=eastwest;top=0;left=0;right=0;bottom=0;" parent="15" vertex="1">
          <mxGeometry y="123" width="204" height="49" as="geometry" />
        </mxCell>
        <mxCell id="25" value="string" style="shape=partialRectangle;connectable=0;fillColor=none;top=0;left=0;bottom=0;right=0;align=left;spacingLeft=2;overflow=hidden;fontSize=11;" parent="24" vertex="1">
          <mxGeometry width="36" height="49" as="geometry">
            <mxRectangle width="36" height="49" as="alternateBounds" />
          </mxGeometry>
        </mxCell>
        <mxCell id="26" value="biography" style="shape=partialRectangle;connectable=0;fillColor=none;top=0;left=0;bottom=0;right=0;align=left;spacingLeft=2;overflow=hidden;fontSize=11;" parent="24" vertex="1">
          <mxGeometry x="36" width="146" height="49" as="geometry">
            <mxRectangle width="146" height="49" as="alternateBounds" />
          </mxGeometry>
        </mxCell>
        <mxCell id="27" value="" style="shape=partialRectangle;connectable=0;fillColor=none;top=0;left=0;bottom=0;right=0;align=left;spacingLeft=2;overflow=hidden;fontSize=11;" parent="24" vertex="1">
          <mxGeometry x="182" width="22" height="49" as="geometry">
            <mxRectangle width="22" height="49" as="alternateBounds" />
          </mxGeometry>
        </mxCell>
        <mxCell id="28" value="CATEGORY" style="shape=table;startSize=25;container=1;collapsible=0;childLayout=tableLayout;fixedRows=1;rowLines=1;fontStyle=1;align=center;resizeLast=1;" parent="1" vertex="1">
          <mxGeometry x="370" y="230" width="173" height="129" as="geometry" />
        </mxCell>
        <mxCell id="29" style="shape=tableRow;horizontal=0;startSize=0;swimlaneHead=0;swimlaneBody=0;fillColor=none;collapsible=0;dropTarget=0;points=[[0,0.5],[1,0.5]];portConstraint=eastwest;top=0;left=0;right=0;bottom=0;" parent="28" vertex="1">
          <mxGeometry y="25" width="173" height="52" as="geometry" />
        </mxCell>
        <mxCell id="30" value="string" style="shape=partialRectangle;connectable=0;fillColor=none;top=0;left=0;bottom=0;right=0;align=left;spacingLeft=2;overflow=hidden;fontSize=11;" parent="29" vertex="1">
          <mxGeometry width="36" height="52" as="geometry">
            <mxRectangle width="36" height="52" as="alternateBounds" />
          </mxGeometry>
        </mxCell>
        <mxCell id="31" value="id" style="shape=partialRectangle;connectable=0;fillColor=none;top=0;left=0;bottom=0;right=0;align=left;spacingLeft=2;overflow=hidden;fontSize=11;" parent="29" vertex="1">
          <mxGeometry x="36" width="115" height="52" as="geometry">
            <mxRectangle width="115" height="52" as="alternateBounds" />
          </mxGeometry>
        </mxCell>
        <mxCell id="32" value="PK" style="shape=partialRectangle;connectable=0;fillColor=none;top=0;left=0;bottom=0;right=0;align=left;spacingLeft=2;overflow=hidden;fontSize=11;" parent="29" vertex="1">
          <mxGeometry x="151" width="22" height="52" as="geometry">
            <mxRectangle width="22" height="52" as="alternateBounds" />
          </mxGeometry>
        </mxCell>
        <mxCell id="33" style="shape=tableRow;horizontal=0;startSize=0;swimlaneHead=0;swimlaneBody=0;fillColor=none;collapsible=0;dropTarget=0;points=[[0,0.5],[1,0.5]];portConstraint=eastwest;top=0;left=0;right=0;bottom=0;" parent="28" vertex="1">
          <mxGeometry y="77" width="173" height="52" as="geometry" />
        </mxCell>
        <mxCell id="34" value="string" style="shape=partialRectangle;connectable=0;fillColor=none;top=0;left=0;bottom=0;right=0;align=left;spacingLeft=2;overflow=hidden;fontSize=11;" parent="33" vertex="1">
          <mxGeometry width="36" height="52" as="geometry">
            <mxRectangle width="36" height="52" as="alternateBounds" />
          </mxGeometry>
        </mxCell>
        <mxCell id="35" value="name" style="shape=partialRectangle;connectable=0;fillColor=none;top=0;left=0;bottom=0;right=0;align=left;spacingLeft=2;overflow=hidden;fontSize=11;" parent="33" vertex="1">
          <mxGeometry x="36" width="115" height="52" as="geometry">
            <mxRectangle width="115" height="52" as="alternateBounds" />
          </mxGeometry>
        </mxCell>
        <mxCell id="36" value="" style="shape=partialRectangle;connectable=0;fillColor=none;top=0;left=0;bottom=0;right=0;align=left;spacingLeft=2;overflow=hidden;fontSize=11;" parent="33" vertex="1">
          <mxGeometry x="151" width="22" height="52" as="geometry">
            <mxRectangle width="22" height="52" as="alternateBounds" />
          </mxGeometry>
        </mxCell>
        <mxCell id="37" value="BOOK_AUTHOR" style="shape=table;startSize=25;container=1;collapsible=0;childLayout=tableLayout;fixedRows=1;rowLines=1;fontStyle=1;align=center;resizeLast=1;" parent="1" vertex="1">
          <mxGeometry x="80.5" y="210" width="202" height="129" as="geometry" />
        </mxCell>
        <mxCell id="38" style="shape=tableRow;horizontal=0;startSize=0;swimlaneHead=0;swimlaneBody=0;fillColor=none;collapsible=0;dropTarget=0;points=[[0,0.5],[1,0.5]];portConstraint=eastwest;top=0;left=0;right=0;bottom=0;" parent="37" vertex="1">
          <mxGeometry y="25" width="202" height="52" as="geometry" />
        </mxCell>
        <mxCell id="39" value="string" style="shape=partialRectangle;connectable=0;fillColor=none;top=0;left=0;bottom=0;right=0;align=left;spacingLeft=2;overflow=hidden;fontSize=11;" parent="38" vertex="1">
          <mxGeometry width="36" height="52" as="geometry">
            <mxRectangle width="36" height="52" as="alternateBounds" />
          </mxGeometry>
        </mxCell>
        <mxCell id="40" value="book_id" style="shape=partialRectangle;connectable=0;fillColor=none;top=0;left=0;bottom=0;right=0;align=left;spacingLeft=2;overflow=hidden;fontSize=11;" parent="38" vertex="1">
          <mxGeometry x="36" width="144" height="52" as="geometry">
            <mxRectangle width="144" height="52" as="alternateBounds" />
          </mxGeometry>
        </mxCell>
        <mxCell id="41" value="FK" style="shape=partialRectangle;connectable=0;fillColor=none;top=0;left=0;bottom=0;right=0;align=left;spacingLeft=2;overflow=hidden;fontSize=11;" parent="38" vertex="1">
          <mxGeometry x="180" width="22" height="52" as="geometry">
            <mxRectangle width="22" height="52" as="alternateBounds" />
          </mxGeometry>
        </mxCell>
        <mxCell id="42" style="shape=tableRow;horizontal=0;startSize=0;swimlaneHead=0;swimlaneBody=0;fillColor=none;collapsible=0;dropTarget=0;points=[[0,0.5],[1,0.5]];portConstraint=eastwest;top=0;left=0;right=0;bottom=0;" parent="37" vertex="1">
          <mxGeometry y="77" width="202" height="52" as="geometry" />
        </mxCell>
        <mxCell id="43" value="string" style="shape=partialRectangle;connectable=0;fillColor=none;top=0;left=0;bottom=0;right=0;align=left;spacingLeft=2;overflow=hidden;fontSize=11;" parent="42" vertex="1">
          <mxGeometry width="36" height="52" as="geometry">
            <mxRectangle width="36" height="52" as="alternateBounds" />
          </mxGeometry>
        </mxCell>
        <mxCell id="44" value="author_id" style="shape=partialRectangle;connectable=0;fillColor=none;top=0;left=0;bottom=0;right=0;align=left;spacingLeft=2;overflow=hidden;fontSize=11;" parent="42" vertex="1">
          <mxGeometry x="36" width="144" height="52" as="geometry">
            <mxRectangle width="144" height="52" as="alternateBounds" />
          </mxGeometry>
        </mxCell>
        <mxCell id="45" value="FK" style="shape=partialRectangle;connectable=0;fillColor=none;top=0;left=0;bottom=0;right=0;align=left;spacingLeft=2;overflow=hidden;fontSize=11;" parent="42" vertex="1">
          <mxGeometry x="180" width="22" height="52" as="geometry">
            <mxRectangle width="22" height="52" as="alternateBounds" />
          </mxGeometry>
        </mxCell>
        <mxCell id="46" value="" style="curved=1;startArrow=ERmandOne;startSize=10;;endArrow=ERzeroToMany;endSize=10;;exitX=0.07;exitY=1;entryX=0.03;entryY=0;" parent="1" source="2" target="37" edge="1">
          <mxGeometry relative="1" as="geometry">
            <Array as="points">
              <mxPoint x="-24" y="219" />
            </Array>
          </mxGeometry>
        </mxCell>
        <mxCell id="47" value="" style="curved=1;startArrow=ERmandOne;startSize=10;;endArrow=ERzeroToMany;endSize=10;;exitX=0;exitY=0.99;entryX=1;entryY=0.11;" parent="1" source="15" target="37" edge="1">
          <mxGeometry relative="1" as="geometry">
            <Array as="points">
              <mxPoint x="339" y="219" />
            </Array>
          </mxGeometry>
        </mxCell>
        <mxCell id="48" value="" style="curved=1;startArrow=ERzeroToMany;startSize=10;;endArrow=ERmandOne;endSize=10;;exitX=1;exitY=0.73;entryX=0.5;entryY=0;" parent="1" source="2" target="28" edge="1">
          <mxGeometry relative="1" as="geometry">
            <Array as="points">
              <mxPoint x="513" y="219" />
            </Array>
          </mxGeometry>
        </mxCell>
      </root>
    </mxGraphModel>
  </diagram>
</mxfile>
